<svg width="40" height="40" viewBox="0 0 40 40" fill="none" xmlns="http://www.w3.org/2000/svg">
<path d="M29.0812 30.4763L30.2062 29.3588C35.4112 29.5288 35.4912 29.3463 35.7199 28.8113L37.1499 25.33L37.2562 25L37.1399 24.7113C37.0787 24.5588 36.8899 24.1038 33.6399 21.0051V19.3751C37.3899 15.7626 37.3099 15.5776 37.0962 15.0488L35.6724 11.5313C35.4587 11.0038 35.3774 10.7976 30.2099 10.9388L29.0849 9.7763C29.201 8.06393 29.142 6.34417 28.9087 4.6438L28.7637 4.31505L25.0462 2.69005C24.4987 2.44005 24.3062 2.35005 20.7962 6.17255L19.2187 6.1488C15.6049 2.2913 15.4337 2.3613 14.8924 2.58005L11.4362 3.97755C10.8949 4.1963 10.7037 4.2738 10.9137 9.5238L9.7974 10.6363C4.5949 10.4663 4.5149 10.6513 4.28865 11.1838L2.85615 14.6663L2.74365 15.0001L2.86115 15.2901C2.9224 15.4401 3.10365 15.8901 6.36115 18.9926V20.6176C2.61115 24.2301 2.6924 24.415 2.9074 24.945L4.3299 28.4663C4.5474 29.0051 4.6249 29.1963 9.79115 29.0613L10.9162 30.23C10.7995 31.9398 10.8569 33.6569 11.0874 35.3551L11.2324 35.6863L14.9737 37.3213C15.5174 37.5488 15.7062 37.63 19.2062 33.8213L20.7837 33.8413C24.4024 37.7038 24.5874 37.6288 25.1162 37.415L28.5649 36.0213C29.1099 35.805 29.2999 35.7288 29.0812 30.4763ZM14.2587 22.3213C13.8225 21.1814 13.7327 19.938 14.0005 18.7472C14.2683 17.5564 14.8819 16.4713 15.7642 15.6279C16.6465 14.7845 17.7582 14.2205 18.9598 14.0066C20.1615 13.7927 21.3995 13.9384 22.5186 14.4256C23.6378 14.9127 24.5881 15.7195 25.2504 16.7447C25.9127 17.7699 26.2575 18.9679 26.2414 20.1883C26.2254 21.4087 25.8493 22.5972 25.1603 23.6047C24.4714 24.6122 23.5002 25.3937 22.3687 25.8513C20.8248 26.455 19.1047 26.4225 17.5847 25.7609C16.0648 25.0994 14.8688 23.8626 14.2587 22.3213Z" fill="#7A7D7D"/>
</svg>
