<svg width="40" height="40" viewBox="0 0 40 40" fill="none" xmlns="http://www.w3.org/2000/svg">
<path d="M36.9726 19.7265L21.8789 4.6406L20.8672 3.62888C20.6366 3.39988 20.3249 3.27136 20 3.27136C19.675 3.27136 19.3633 3.39988 19.1328 3.62888L3.02732 19.7265C2.79112 19.9618 2.60444 20.242 2.47831 20.5507C2.35218 20.8593 2.28915 21.19 2.29295 21.5234C2.30857 22.8984 3.4531 23.9961 4.8281 23.9961H6.48826V36.7187H33.5117V23.9961H35.207C35.875 23.9961 36.5039 23.7344 36.9765 23.2617C37.2093 23.0297 37.3937 22.7539 37.5191 22.4501C37.6444 22.1464 37.7083 21.8208 37.707 21.4922C37.707 20.8281 37.4453 20.1992 36.9726 19.7265ZM22.1875 33.9062H17.8125V25.9375H22.1875V33.9062ZM30.6992 21.1836V33.9062H24.6875V25C24.6875 24.1367 23.9883 23.4375 23.125 23.4375H16.875C16.0117 23.4375 15.3125 24.1367 15.3125 25V33.9062H9.30076V21.1836H5.55076L20.0039 6.74216L20.9062 7.64451L34.4531 21.1836H30.6992Z" fill="#FFA807"/>
</svg>
