<svg width="40" height="40" viewBox="0 0 40 40" fill="none" xmlns="http://www.w3.org/2000/svg">
<path d="M36.9727 19.7265L21.8789 4.6406L20.8672 3.62888C20.6367 3.39988 20.325 3.27136 20 3.27136C19.6751 3.27136 19.3634 3.39988 19.1329 3.62888L3.02738 19.7265C2.79118 19.9618 2.6045 20.242 2.47837 20.5507C2.35224 20.8593 2.28921 21.19 2.29301 21.5234C2.30863 22.8984 3.45316 23.9961 4.82816 23.9961H6.48832V36.7187H33.5118V23.9961H35.2071C35.875 23.9961 36.5039 23.7344 36.9766 23.2617C37.2093 23.0297 37.3937 22.7539 37.5191 22.4501C37.6445 22.1464 37.7084 21.8208 37.7071 21.4922C37.7071 20.8281 37.4454 20.1992 36.9727 19.7265ZM22.1875 33.9062H17.8125V25.9375H22.1875V33.9062ZM30.6993 21.1836V33.9062H24.6875V25C24.6875 24.1367 23.9883 23.4375 23.125 23.4375H16.875C16.0118 23.4375 15.3125 24.1367 15.3125 25V33.9062H9.30082V21.1836H5.55082L20.0039 6.74216L20.9063 7.64451L34.4532 21.1836H30.6993Z" fill="#7A7D7D"/>
</svg>
