<svg width="60" height="60" viewBox="0 0 60 60" fill="none" xmlns="http://www.w3.org/2000/svg">
<path d="M22.5 7.5H10C8.61929 7.5 7.5 8.61929 7.5 10V22.5C7.5 23.8807 8.61929 25 10 25H22.5C23.8807 25 25 23.8807 25 22.5V10C25 8.61929 23.8807 7.5 22.5 7.5Z" fill="#171D1C" stroke="#171D1C" stroke-width="4" stroke-linejoin="round"/>
<path d="M22.5 35H10C8.61929 35 7.5 36.1193 7.5 37.5V50C7.5 51.3807 8.61929 52.5 10 52.5H22.5C23.8807 52.5 25 51.3807 25 50V37.5C25 36.1193 23.8807 35 22.5 35Z" fill="#171D1C" stroke="#171D1C" stroke-width="4" stroke-linejoin="round"/>
<path d="M50 7.5H37.5C36.1193 7.5 35 8.61929 35 10V22.5C35 23.8807 36.1193 25 37.5 25H50C51.3807 25 52.5 23.8807 52.5 22.5V10C52.5 8.61929 51.3807 7.5 50 7.5Z" fill="#171D1C" stroke="#171D1C" stroke-width="4" stroke-linejoin="round"/>
<path d="M50 35H37.5C36.1193 35 35 36.1193 35 37.5V50C35 51.3807 36.1193 52.5 37.5 52.5H50C51.3807 52.5 52.5 51.3807 52.5 50V37.5C52.5 36.1193 51.3807 35 50 35Z" fill="#171D1C" stroke="#171D1C" stroke-width="4" stroke-linejoin="round"/>
</svg>
