<svg width="60" height="60" viewBox="0 0 60 60" fill="none" xmlns="http://www.w3.org/2000/svg">
<path d="M18.75 10.3125C17.0812 10.3125 15.4499 10.8074 14.0624 11.7345C12.6748 12.6616 11.5934 13.9794 10.9548 15.5211C10.3162 17.0629 10.1491 18.7594 10.4746 20.3961C10.8002 22.0328 11.6038 23.5362 12.7838 24.7162C13.9638 25.8962 15.4672 26.6998 17.1039 27.0254C18.7406 27.3509 20.4371 27.1839 21.9789 26.5452C23.5206 25.9066 24.8384 24.8252 25.7655 23.4376C26.6927 22.0501 27.1875 20.4188 27.1875 18.75C27.1875 16.5122 26.2986 14.3661 24.7162 12.7838C23.1339 11.2015 20.9878 10.3125 18.75 10.3125ZM18.75 25.3125C17.4521 25.3125 16.1833 24.9276 15.1041 24.2065C14.0249 23.4854 13.1837 22.4605 12.687 21.2614C12.1903 20.0622 12.0604 18.7427 12.3136 17.4697C12.5668 16.1967 13.1918 15.0274 14.1096 14.1096C15.0274 13.1918 16.1967 12.5668 17.4697 12.3136C18.7427 12.0604 20.0622 12.1903 21.2614 12.687C22.4605 13.1837 23.4854 14.0249 24.2065 15.1041C24.9276 16.1833 25.3125 17.4521 25.3125 18.75C25.3125 20.4905 24.6211 22.1597 23.3904 23.3904C22.1597 24.6211 20.4905 25.3125 18.75 25.3125ZM41.25 27.1875C42.9188 27.1875 44.5501 26.6927 45.9376 25.7655C47.3252 24.8384 48.4066 23.5206 49.0452 21.9789C49.6838 20.4371 49.8509 18.7406 49.5254 17.1039C49.1998 15.4672 48.3962 13.9638 47.2162 12.7838C46.0362 11.6038 44.5328 10.8002 42.8961 10.4746C41.2594 10.1491 39.5629 10.3162 38.0211 10.9548C36.4794 11.5934 35.1616 12.6748 34.2345 14.0624C33.3074 15.4499 32.8125 17.0812 32.8125 18.75C32.8125 20.9878 33.7015 23.1339 35.2838 24.7162C36.8661 26.2986 39.0122 27.1875 41.25 27.1875ZM41.25 12.1875C42.5479 12.1875 43.8167 12.5724 44.8959 13.2935C45.9751 14.0146 46.8163 15.0395 47.313 16.2386C47.8097 17.4378 47.9396 18.7573 47.6864 20.0303C47.4332 21.3033 46.8082 22.4726 45.8904 23.3904C44.9726 24.3082 43.8033 24.9332 42.5303 25.1864C41.2573 25.4396 39.9378 25.3097 38.7386 24.813C37.5395 24.3163 36.5146 23.4751 35.7935 22.3959C35.0724 21.3167 34.6875 20.0479 34.6875 18.75C34.6875 17.0095 35.3789 15.3403 36.6096 14.1096C37.8403 12.8789 39.5095 12.1875 41.25 12.1875ZM18.75 32.8125C17.0812 32.8125 15.4499 33.3074 14.0624 34.2345C12.6748 35.1616 11.5934 36.4794 10.9548 38.0211C10.3162 39.5629 10.1491 41.2594 10.4746 42.8961C10.8002 44.5328 11.6038 46.0362 12.7838 47.2162C13.9638 48.3962 15.4672 49.1998 17.1039 49.5254C18.7406 49.8509 20.4371 49.6838 21.9789 49.0452C23.5206 48.4066 24.8384 47.3252 25.7655 45.9376C26.6927 44.5501 27.1875 42.9188 27.1875 41.25C27.1875 39.0122 26.2986 36.8661 24.7162 35.2838C23.1339 33.7015 20.9878 32.8125 18.75 32.8125ZM18.75 47.8125C17.4521 47.8125 16.1833 47.4276 15.1041 46.7065C14.0249 45.9854 13.1837 44.9605 12.687 43.7614C12.1903 42.5622 12.0604 41.2427 12.3136 39.9697C12.5668 38.6967 13.1918 37.5274 14.1096 36.6096C15.0274 35.6918 16.1967 35.0668 17.4697 34.8136C18.7427 34.5604 20.0622 34.6903 21.2614 35.187C22.4605 35.6837 23.4854 36.5249 24.2065 37.6041C24.9276 38.6833 25.3125 39.9521 25.3125 41.25C25.3125 42.9905 24.6211 44.6597 23.3904 45.8904C22.1597 47.1211 20.4905 47.8125 18.75 47.8125ZM41.25 32.8125C39.5812 32.8125 37.9499 33.3074 36.5624 34.2345C35.1748 35.1616 34.0934 36.4794 33.4548 38.0211C32.8162 39.5629 32.6491 41.2594 32.9746 42.8961C33.3002 44.5328 34.1038 46.0362 35.2838 47.2162C36.4638 48.3962 37.9672 49.1998 39.6039 49.5254C41.2406 49.8509 42.9371 49.6838 44.4789 49.0452C46.0206 48.4066 47.3384 47.3252 48.2655 45.9376C49.1927 44.5501 49.6875 42.9188 49.6875 41.25C49.6875 39.0122 48.7986 36.8661 47.2162 35.2838C45.6339 33.7015 43.4878 32.8125 41.25 32.8125ZM41.25 47.8125C39.9521 47.8125 38.6833 47.4276 37.6041 46.7065C36.5249 45.9854 35.6837 44.9605 35.187 43.7614C34.6903 42.5622 34.5604 41.2427 34.8136 39.9697C35.0668 38.6967 35.6918 37.5274 36.6096 36.6096C37.5274 35.6918 38.6967 35.0668 39.9697 34.8136C41.2427 34.5604 42.5622 34.6903 43.7614 35.187C44.9605 35.6837 45.9854 36.5249 46.7065 37.6041C47.4276 38.6833 47.8125 39.9521 47.8125 41.25C47.8125 42.9905 47.1211 44.6597 45.8904 45.8904C44.6597 47.1211 42.9905 47.8125 41.25 47.8125Z" fill="white"/>
</svg>
