<svg width="60" height="60" viewBox="0 0 60 60" fill="none" xmlns="http://www.w3.org/2000/svg">
<path d="M24.1406 5.18793C23.918 5.18793 23.6953 5.18793 23.4727 5.19965C22.4063 5.23246 21.3633 5.3309 20.3438 5.50786C18.832 8.06957 19.1367 11.7106 20.25 14.6954C23.1445 15.0586 26.3203 15.4571 29.4141 15.9844C28.9688 14.2266 28.6875 12.4219 28.9805 10.609C29.2383 9.00004 30 7.4227 31.4063 6.00356C29.1914 5.50317 26.6484 5.17387 24.1406 5.18793ZM17.7188 6.16645C14.4961 7.2645 12.0469 9.37035 11.1094 13.1954C11.4469 13.3243 12.0234 13.4883 12.7617 13.6407C14.0625 13.8985 15.8672 14.1446 17.9063 14.4024C17.0977 11.7774 16.8164 8.81371 17.7188 6.16645ZM33.8555 6.65161C32.0391 8.03442 31.3125 9.42661 31.0664 10.9489C30.7969 12.5743 31.1719 14.4375 31.7109 16.4063C32.8125 16.6289 33.8789 16.8633 34.8984 17.1329C36.832 17.625 38.625 18.2461 40.2422 18.9141C40.3828 17.5547 40.582 16.0664 41.4258 14.6485C42.1641 13.418 43.3828 12.3282 45.3047 11.4879C42.2461 9.49692 38.707 7.91723 33.8555 6.65161ZM47.3789 12.961C44.9648 13.7344 43.8516 14.6954 43.2305 15.7383C42.5625 16.8516 42.4336 18.2227 42.2578 19.7813C42.9141 20.086 43.5352 20.4024 44.1094 20.6954C46.5234 21.9493 48.1289 23.0508 48.832 23.6602H48.8203C51.5156 25.9571 53.2734 25.6172 54.5391 24.6797C55.7109 23.8008 56.2734 22.0782 56.1445 21.211C52.957 17.9297 50.332 15.211 47.3789 12.961ZM13.4297 15.9024C13.4297 16.3829 13.4531 16.8633 13.5117 17.3086C13.6172 18.1172 13.8281 18.8086 14.1797 19.336C14.5313 19.8516 15.0117 20.25 15.8555 20.5079C16.4531 20.6954 17.0625 20.8829 17.6602 21.0586C19.3359 20.8243 21.0469 20.7305 22.7227 20.7422C26.4492 20.7657 30.0117 21.3516 32.7305 22.1836C36.9258 23.2618 40.2188 24.8555 43.0313 26.7774C45.1172 26.836 47.0977 26.6954 48.9375 26.3204C48.4453 26.0274 47.9531 25.6758 47.4609 25.254H47.4492C47.0391 24.9024 45.4336 23.7657 43.1367 22.5704C40.8398 21.3633 37.8047 20.0625 34.3594 19.1719C29.6719 17.9532 23.5898 17.25 18.6445 16.6289C16.6758 16.3829 14.9063 16.1485 13.4297 15.9024ZM22.7109 22.8633C21.668 22.8633 20.625 22.8985 19.5938 22.9805C17.6133 26.1094 16.5469 29.1914 18.8906 34.1368C22.0547 34.5469 25.3828 35.0391 28.4531 35.6954C28.0313 33.5274 28.2891 31.4532 29.0859 29.5547C29.8711 27.6797 31.1602 25.9688 32.7773 24.375C32.5781 24.3165 32.3789 24.2579 32.1797 24.211H32.1563L32.1328 24.1993C29.6484 23.4375 26.25 22.8985 22.7109 22.8633ZM16.9688 23.3086C16.7695 23.3438 16.5586 23.3907 16.3594 23.4258C13.6289 23.9649 11.1305 24.9375 9.21094 26.4258C7.42383 27.8086 6.13477 29.6133 5.53242 32.0508C5.54883 32.0508 5.54414 32.0508 5.56055 32.0625C5.92617 32.2149 6.56836 32.3907 7.38047 32.5547C9.00352 32.8829 11.3262 33.1875 13.9688 33.5157C14.7656 33.6094 15.6094 33.7149 16.4531 33.8204C14.8477 29.6133 15.5156 26.2032 16.9688 23.3086ZM35.0977 25.0899C33.1992 26.8008 31.793 28.5586 31.0313 30.375C30.2695 32.2032 30.1172 34.0665 30.75 36.2227C30.8672 36.2461 30.9844 36.2813 31.0898 36.3047C34.5352 37.2071 37.2422 38.2266 39.293 39.1993C39.4453 37.7813 39.8906 36.211 41.0625 34.9102C42.1992 33.6446 43.9453 32.7071 46.4883 32.3204C46.1953 32.0508 45.9024 31.7696 45.5977 31.5C42.668 28.8633 39.4922 26.6485 35.0977 25.0899ZM48.457 34.2539C45.2578 34.3829 43.582 35.2735 42.6328 36.3164C41.6484 37.418 41.3672 38.8594 41.332 40.2657C42.6914 41.0391 43.6055 41.7071 44.1328 42.1641C47.0039 44.625 50.3672 45 52.875 44.4493C54.1289 44.168 55.1484 43.6407 55.7344 43.125C56.168 42.7266 56.3203 42.4336 56.332 42.1875C53.332 39.4336 50.8828 36.7266 48.457 34.2539ZM8.37539 34.875C8.43516 35.2735 8.51367 35.6602 8.61797 36.0352C9.075 37.6758 9.84961 38.8711 11.7656 39.4571C20.2148 42.0586 28.3477 44.8829 35.5195 46.0196C39.5859 46.6641 43.3125 46.7813 46.6406 46.043C45.3164 45.5625 43.9922 44.8243 42.75 43.7579C41.7305 42.8789 38.0039 40.2774 30.5508 38.3438C25.5234 37.0313 19.0078 36.2696 13.6992 35.6133C11.7164 35.3555 9.9 35.1211 8.37539 34.875ZM7.63711 42.8789C5.8957 42.9493 4.20938 44.5664 3.66211 45.5743C4.91719 46.3008 8.44453 46.7461 9.94805 43.9688C9.27774 43.1954 8.52891 42.8907 7.78594 42.8789H7.63711ZM11.8008 45.6797C9.46875 45.7618 8.68242 50.836 9.97969 51.7852C11.3133 51.9493 13.9336 46.8985 12.2695 45.7266C12.1523 45.6915 12.0234 45.6797 11.9063 45.6797H11.8008ZM21.9141 47.004C21.4805 47.004 21.1055 47.1211 20.8477 47.4024C19.8633 49.9922 25.4063 51.6797 26.5781 50.4258C26.8477 49.3711 23.8008 47.0391 21.9141 47.004ZM30.6211 51.4102C28.7461 51.3868 25.8633 52.3125 25.9336 53.7774C27.0469 56.3086 32.1797 53.6016 32.1211 51.8907C31.9336 51.5743 31.3594 51.4219 30.6211 51.4102Z" fill="#171D1C"/>
</svg>
