<svg width="60" height="60" viewBox="0 0 60 60" fill="none" xmlns="http://www.w3.org/2000/svg">
<path d="M57.6002 50.4005V54.0003C57.5991 54.9547 57.2195 55.8697 56.5446 56.5446C55.8697 57.2195 54.9546 57.5991 54.0002 57.6001H6.0002C5.04576 57.5991 4.13071 57.2195 3.45581 56.5446C2.7809 55.8697 2.40127 54.9547 2.4002 54.0003V50.4005C2.40011 50.2429 2.43109 50.0868 2.49137 49.9412C2.55164 49.7956 2.64003 49.6633 2.75148 49.5518C2.86293 49.4404 2.99525 49.352 3.14088 49.2917C3.28651 49.2315 3.44259 49.2005 3.6002 49.2006H56.4002C56.5578 49.2005 56.7139 49.2315 56.8595 49.2917C57.0051 49.352 57.1375 49.4404 57.2489 49.5518C57.3604 49.6633 57.4487 49.7956 57.509 49.9412C57.5693 50.0868 57.6003 50.2429 57.6002 50.4005ZM54.0002 46.8007V30.8279C53.9858 30.1707 54.1137 29.5182 54.375 28.9151C54.6364 28.312 55.025 27.7725 55.5143 27.3336C56.2806 26.677 56.8682 25.8371 57.2221 24.892C57.576 23.947 57.6847 22.9276 57.5381 21.9292C57.298 20.4827 56.5475 19.1701 55.4226 18.2295C54.2977 17.289 52.873 16.7827 51.4068 16.8026H45.4116C46.7619 18.0704 47.6436 19.7576 47.9134 21.59C48.1186 22.988 47.966 24.4152 47.4698 25.7382C46.9737 27.0612 46.1502 28.2368 45.0763 29.1551C44.8505 29.3693 44.6732 29.6295 44.5566 29.9181C44.44 30.2067 44.3866 30.5169 44.4002 30.8279V46.8007H54.0002ZM42.0002 46.8007V30.8279C41.9858 30.1707 42.1137 29.5182 42.375 28.9151C42.6364 28.312 43.025 27.7725 43.5143 27.3336C44.2806 26.677 44.8682 25.8371 45.2221 24.892C45.576 23.947 45.6847 22.9276 45.5381 21.9292C45.298 20.4827 44.5475 19.1701 43.4226 18.2295C42.2977 17.289 40.873 16.7827 39.4068 16.8026H33.4116C34.7619 18.0704 35.6436 19.7576 35.9134 21.59C36.1186 22.988 35.966 24.4152 35.4698 25.7382C34.9737 27.0612 34.1502 28.2368 33.0763 29.1551C32.8505 29.3693 32.6732 29.6295 32.5566 29.9181C32.44 30.2067 32.3866 30.5169 32.4002 30.8279V46.8007H42.0002ZM2.46231 21.9292C2.70236 20.4827 3.45289 19.1701 4.57777 18.2295C5.70265 17.289 7.12739 16.7827 8.59355 16.8026H27.4068C28.873 16.7827 30.2977 17.289 31.4226 18.2295C32.5475 19.1701 33.298 20.4827 33.5381 21.9292C33.6847 22.9276 33.576 23.947 33.2221 24.892C32.8682 25.8371 32.2807 26.677 31.5143 27.3336C31.025 27.7725 30.6364 28.312 30.375 28.9151C30.1137 29.5182 29.9858 30.1707 30.0002 30.8279V46.8007H6.0002V30.8279C6.01455 30.1709 5.8868 29.5186 5.62569 28.9156C5.36457 28.3126 4.97625 27.7732 4.48731 27.3342C3.72058 26.6777 3.13271 25.8377 2.77859 24.8925C2.42447 23.9473 2.31566 22.9278 2.46231 21.9292ZM12.3518 33.25C12.4632 33.3615 12.5954 33.4499 12.741 33.5102C12.8866 33.5705 13.0426 33.6015 13.2002 33.6015C13.3578 33.6015 13.5138 33.5705 13.6594 33.5102C13.805 33.4499 13.9372 33.3615 14.0486 33.25L18.8486 28.4503C19.0736 28.2253 19.2 27.9201 19.2 27.6019C19.2 27.2837 19.0736 26.9785 18.8486 26.7535C18.6236 26.5285 18.3184 26.402 18.0002 26.4021C17.682 26.4021 17.3768 26.5285 17.1518 26.7535L12.3518 31.5532C12.2403 31.6646 12.1519 31.7968 12.0916 31.9424C12.0312 32.088 12.0002 32.244 12.0002 32.4016C12.0002 32.5592 12.0313 32.7152 12.0916 32.8608C12.1519 33.0064 12.2403 33.1386 12.3518 33.25ZM12.3518 41.6495C12.4632 41.7609 12.5954 41.8494 12.741 41.9097C12.8866 41.97 13.0426 42.001 13.2002 42.001C13.3578 42.001 13.5138 41.97 13.6594 41.9097C13.805 41.8494 13.9372 41.7609 14.0486 41.6495L23.6486 32.0501C23.8736 31.8251 24 31.5199 24 31.2017C24 30.8834 23.8736 30.5783 23.6486 30.3532C23.4236 30.1282 23.1184 30.0018 22.8002 30.0018C22.482 30.0018 22.1768 30.1283 21.9518 30.3533L12.3518 39.9527C12.2403 40.0641 12.1519 40.1963 12.0916 40.3419C12.0312 40.4875 12.0002 40.6435 12.0002 40.8011C12.0002 40.9587 12.0313 41.1147 12.0916 41.2603C12.1519 41.4058 12.2403 41.5381 12.3518 41.6495ZM31.0924 13.6991C31.4808 12.7551 31.6667 11.7401 31.638 10.7197C31.6093 9.69932 31.3668 8.69633 30.926 7.77563C30.3611 6.17843 30.1256 5.36583 30.9365 4.35402C31.1281 4.10501 31.2144 3.79081 31.1769 3.47888C31.1394 3.16694 30.9811 2.88214 30.7359 2.68563C30.4908 2.48912 30.1784 2.39657 29.8657 2.42784C29.5531 2.45911 29.2652 2.61172 29.0639 2.85289C27.3822 4.95159 28.0924 6.96065 28.6631 8.57539C28.9939 9.20745 29.1868 9.90253 29.2291 10.6147C29.2713 11.3268 29.1619 12.0399 28.908 12.7066C28.8429 12.85 28.8066 13.0049 28.8013 13.1623C28.7959 13.3198 28.8217 13.4767 28.877 13.6242C28.9323 13.7717 29.0162 13.9069 29.1238 14.022C29.2313 14.1371 29.3605 14.2298 29.5039 14.295C29.7936 14.4266 30.1237 14.4378 30.4216 14.326C30.5691 14.2707 30.7042 14.1868 30.8193 14.0793C30.9344 13.9717 31.0272 13.8425 31.0924 13.6991ZM19.0924 13.6991C19.4808 12.7551 19.6667 11.7401 19.638 10.7197C19.6093 9.69932 19.3668 8.69633 18.926 7.77563C18.3611 6.17843 18.1256 5.36583 18.9365 4.35402C19.1281 4.10501 19.2144 3.79081 19.1769 3.47888C19.1394 3.16694 18.9811 2.88214 18.7359 2.68563C18.4908 2.48912 18.1784 2.39657 17.8657 2.42784C17.5531 2.45911 17.2652 2.61172 17.0639 2.85289C15.3822 4.95159 16.0924 6.96065 16.6631 8.57539C16.9939 9.20745 17.1868 9.90253 17.2291 10.6147C17.2713 11.3268 17.1619 12.0399 16.908 12.7066C16.7764 12.9962 16.7653 13.3263 16.877 13.6242C16.9888 13.9221 17.2143 14.1634 17.5039 14.295C17.7936 14.4266 18.1237 14.4378 18.4216 14.326C18.7195 14.2143 18.9608 13.9888 19.0924 13.6991ZM43.0924 13.6991C43.4808 12.7551 43.6667 11.7401 43.638 10.7197C43.6093 9.69932 43.3668 8.69633 42.926 7.77563C42.3611 6.17843 42.1256 5.36583 42.9365 4.35402C43.1281 4.10501 43.2144 3.79081 43.1769 3.47888C43.1394 3.16694 42.9811 2.88214 42.7359 2.68563C42.4908 2.48912 42.1784 2.39657 41.8657 2.42784C41.5531 2.45911 41.2652 2.61172 41.0639 2.85289C39.3822 4.95159 40.0924 6.96065 40.6631 8.57539C40.9939 9.20745 41.1868 9.90253 41.2291 10.6147C41.2713 11.3268 41.1619 12.0399 40.908 12.7066C40.8429 12.85 40.8066 13.0049 40.8013 13.1623C40.7959 13.3198 40.8217 13.4767 40.877 13.6242C40.9323 13.7717 41.0162 13.9069 41.1238 14.022C41.2313 14.1371 41.3605 14.2298 41.5039 14.295C41.6474 14.3602 41.8022 14.3965 41.9597 14.4018C42.1171 14.4071 42.2741 14.3814 42.4216 14.326C42.5691 14.2707 42.7042 14.1868 42.8193 14.0793C42.9344 13.9717 43.0272 13.8425 43.0924 13.6991Z" fill="#171D1C"/>
</svg>
