<svg width="60" height="60" viewBox="0 0 60 60" fill="none" xmlns="http://www.w3.org/2000/svg">
<path d="M52.4439 11.2069C52.1427 7.14011 48.7355 3.92273 44.5877 3.92273C40.7671 3.92273 37.5738 6.65261 36.8583 10.2615L0 22.7785V56.0773H60V24.1803C60 18.6039 57.3932 14.1407 52.4439 11.2069ZM37.1216 14.3045C38.1741 17.4152 41.122 19.6618 44.5877 19.6618C47.6536 19.6618 50.3141 17.9032 51.6163 15.3441C54.0413 17.1193 55.4877 19.4221 55.9357 22.2239H13.8022L37.1216 14.3045ZM56.0868 42.7401C55.2206 42.632 54.5906 42.4537 53.9038 42.2589C52.6857 41.9134 51.3052 41.5216 48.696 41.5216C46.0868 41.5216 44.7063 41.9133 43.4884 42.2589C42.375 42.5748 41.4135 42.8475 39.3489 42.8475C37.284 42.8475 36.3225 42.5748 35.209 42.2589C33.9909 41.9134 32.6104 41.5216 30.0012 41.5216C27.392 41.5216 26.0114 41.9133 24.7932 42.2589C23.6797 42.5748 22.718 42.8475 20.6532 42.8475C18.5882 42.8475 17.6265 42.5746 16.513 42.2587C15.2948 41.9133 13.9141 41.5215 11.3048 41.5215C8.69566 41.5215 7.31496 41.9132 6.09668 42.2587C5.40938 42.4537 4.77926 42.6321 3.91266 42.7401V36.6941H3.91289C5.33824 36.5598 6.29437 36.2901 7.16473 36.0432C8.27824 35.7273 9.24 35.4546 11.3048 35.4546C13.3697 35.4546 14.3314 35.7273 15.445 36.0432C16.6631 36.3887 18.0438 36.7805 20.6531 36.7805C23.2622 36.7805 24.6429 36.3888 25.8611 36.0432C26.9746 35.7273 27.9361 35.4546 30.0009 35.4546C32.0658 35.4546 33.0273 35.7273 34.1408 36.0432C35.359 36.3887 36.7395 36.7805 39.3486 36.7805C41.9576 36.7805 43.3382 36.3888 44.5562 36.0432C45.6696 35.7273 46.6311 35.4546 48.6959 35.4546C50.7607 35.4546 51.7222 35.7273 52.8356 36.0432C53.7059 36.2901 54.6618 36.5598 56.0866 36.6941V42.7401H56.0868Z" fill="#171D1C"/>
</svg>
