<svg width="60" height="60" viewBox="0 0 60 60" fill="none" xmlns="http://www.w3.org/2000/svg">
<path d="M53.4375 26.25C53.4375 25.0068 52.9436 23.8145 52.0646 22.9354C51.1855 22.0564 49.9932 21.5625 48.75 21.5625H30.9375V17.7445C32.4993 17.5191 33.9275 16.7385 34.9606 15.5458C35.9936 14.353 36.5623 12.8279 36.5625 11.25C36.5625 5.19375 30.7664 1.25859 30.5203 1.09453C30.3663 0.991743 30.1852 0.93689 30 0.93689C29.8148 0.93689 29.6337 0.991743 29.4797 1.09453C29.2336 1.25859 23.4375 5.19375 23.4375 11.25C23.4377 12.8279 24.0064 14.353 25.0394 15.5458C26.0725 16.7385 27.5007 17.5191 29.0625 17.7445V21.5625H11.25C10.0068 21.5625 8.81451 22.0564 7.93544 22.9354C7.05636 23.8145 6.5625 25.0068 6.5625 26.25V31.718C6.56335 33.6682 7.2242 35.5607 8.4375 37.0875V46.875C8.4375 48.1182 8.93136 49.3105 9.81044 50.1896C10.6895 51.0686 11.8818 51.5625 13.125 51.5625H46.875C48.1182 51.5625 49.3105 51.0686 50.1896 50.1896C51.0686 49.3105 51.5625 48.1182 51.5625 46.875V37.0875C52.7758 35.5607 53.4367 33.6682 53.4375 31.718V26.25ZM25.3125 11.25C25.3125 7.17422 28.6805 4.09453 30 3.04687C31.3195 4.09687 34.6875 7.17656 34.6875 11.25C34.6875 12.4932 34.1936 13.6855 33.3146 14.5646C32.4355 15.4436 31.2432 15.9375 30 15.9375C28.7568 15.9375 27.5645 15.4436 26.6854 14.5646C25.8064 13.6855 25.3125 12.4932 25.3125 11.25ZM46.875 49.6875H13.125C12.3791 49.6875 11.6637 49.3912 11.1363 48.8637C10.6088 48.3363 10.3125 47.6209 10.3125 46.875V38.843C11.6232 39.7537 13.1703 40.2642 14.7656 40.3125C16.3532 40.3533 17.9203 39.9469 19.288 39.1396C20.6556 38.3322 21.7687 37.1566 22.5 35.7469C23.2098 37.1241 24.2852 38.2793 25.6081 39.0858C26.9311 39.8923 28.4506 40.319 30 40.319C31.5494 40.319 33.0689 39.8923 34.3919 39.0858C35.7148 38.2793 36.7902 37.1241 37.5 35.7469C38.2134 37.1207 39.2897 38.2728 40.612 39.0777C41.9343 39.8826 43.452 40.3097 45 40.3125H45.2344C46.8295 40.2649 48.3765 39.7552 49.6875 38.8453V46.875C49.6875 47.6209 49.3912 48.3363 48.8637 48.8637C48.3363 49.3912 47.6209 49.6875 46.875 49.6875ZM51.5625 31.718C51.5625 35.325 48.7008 38.3391 45.1852 38.4352C44.3081 38.4599 43.435 38.3085 42.6174 37.99C41.7999 37.6714 41.0545 37.1922 40.4254 36.5806C39.7963 35.969 39.2963 35.2374 38.9548 34.4292C38.6134 33.6209 38.4375 32.7524 38.4375 31.875C38.4375 31.6264 38.3387 31.3879 38.1629 31.2121C37.9871 31.0363 37.7486 30.9375 37.5 30.9375C37.2514 30.9375 37.0129 31.0363 36.8371 31.2121C36.6613 31.3879 36.5625 31.6264 36.5625 31.875C36.5625 33.6155 35.8711 35.2847 34.6404 36.5154C33.4097 37.7461 31.7405 38.4375 30 38.4375C28.2595 38.4375 26.5903 37.7461 25.3596 36.5154C24.1289 35.2847 23.4375 33.6155 23.4375 31.875C23.4375 31.6264 23.3387 31.3879 23.1629 31.2121C22.9871 31.0363 22.7486 30.9375 22.5 30.9375C22.2514 30.9375 22.0129 31.0363 21.8371 31.2121C21.6613 31.3879 21.5625 31.6264 21.5625 31.875C21.5628 32.7526 21.3872 33.6214 21.0459 34.4299C20.7045 35.2384 20.2045 35.9702 19.5754 36.5821C18.9463 37.194 18.2008 37.6734 17.3831 37.9921C16.5654 38.3108 15.6921 38.4623 14.8148 38.4375C11.2992 38.3414 8.4375 35.3273 8.4375 31.7203V26.25C8.4375 25.5041 8.73382 24.7887 9.26126 24.2613C9.78871 23.7338 10.5041 23.4375 11.25 23.4375H48.75C49.4959 23.4375 50.2113 23.7338 50.7387 24.2613C51.2662 24.7887 51.5625 25.5041 51.5625 26.25V31.718Z" fill="#171D1C"/>
</svg>
