<svg width="60" height="60" viewBox="0 0 60 60" fill="none" xmlns="http://www.w3.org/2000/svg">
<path d="M30 5C31.7848 5 33.5467 5.18734 35.2646 5.5557C36.7163 5.86697 37.2476 7.66177 36.1992 8.71304C35.037 9.87843 34.375 11.4467 34.375 13.125C34.375 16.0511 36.403 18.568 39.2146 19.2156C40.1398 19.4287 40.7596 20.2997 40.6579 21.2437C40.636 21.4468 40.625 21.6577 40.625 21.875C40.625 25.3268 43.4232 28.125 46.875 28.125C48.6915 28.125 50.3782 27.3482 51.5588 26.0133C52.6316 24.8003 54.6341 25.4261 54.8252 27.0341C54.9414 28.0119 55 29.0022 55 30C55 43.8071 43.8071 55 30 55C16.1929 55 5 43.8071 5 30C5 16.1929 16.1929 5 30 5ZM37.5 40C36.1193 40 35 41.1193 35 42.5C35 43.8807 36.1193 45 37.5 45C38.8807 45 40 43.8807 40 42.5C40 41.1193 38.8807 40 37.5 40ZM20 37.5C18.6193 37.5 17.5 38.6193 17.5 40C17.5 41.3807 18.6193 42.5 20 42.5C21.3807 42.5 22.5 41.3807 22.5 40C22.5 38.6193 21.3807 37.5 20 37.5ZM30 27.5C28.6193 27.5 27.5 28.6193 27.5 30C27.5 31.3807 28.6193 32.5 30 32.5C31.3807 32.5 32.5 31.3807 32.5 30C32.5 28.6193 31.3807 27.5 30 27.5ZM17.5 20C16.1193 20 15 21.1193 15 22.5C15 23.8807 16.1193 25 17.5 25C18.8807 25 20 23.8807 20 22.5C20 21.1193 18.8807 20 17.5 20Z" fill="#171D1C"/>
</svg>
