<svg fill="#000000" version="1.1" id="Layer_1" xmlns="http://www.w3.org/2000/svg" xmlns:xlink="http://www.w3.org/1999/xlink" viewBox="0 0 512 512" enable-background="new 0 0 512 512" xml:space="preserve"><g id="SVGRepo_bgCarrier" stroke-width="0"></g><g id="SVGRepo_tracerCarrier" stroke-linecap="round" stroke-linejoin="round"></g><g id="SVGRepo_iconCarrier"> <g> <path d="M257.454,84.079c10.889-15.097,28.511-25.036,48.504-25.036c0.562,0,1.091,0.125,1.649,0.14 c-5.688-22.321-25.759-38.903-49.855-38.903c-24.078,0-44.132,16.557-49.839,38.852c0.352-0.006,0.684-0.088,1.037-0.088 C228.944,59.042,246.566,68.981,257.454,84.079z"></path> <path d="M111.503,275.13l33.717-146.433c-5.128-10.256-15.621-17.368-27.866-17.368c-14.565,0-27.199,10.064-30.469,24.244 L59.737,253.473c-1.736,7.531-0.065,15.354,4.319,21.657H111.503z"></path> <path d="M245.332,275.13V118.957c0-20.095-16.288-36.39-36.381-36.39c-16.955,0-31.658,11.701-35.465,28.227L135.646,275.13 H245.332z"></path> <path d="M450.851,275.13c4.385-6.303,6.056-14.126,4.319-21.657l-27.139-117.884c-3.27-14.212-15.906-24.26-30.47-24.26 c-12.249,0-22.743,7.11-27.871,17.371l33.716,146.43H450.851z"></path> <path d="M269.576,118.957V275.13h109.685L341.42,110.794c-3.804-16.525-18.507-28.227-35.462-28.227 C285.865,82.567,269.576,98.862,269.576,118.957z"></path> <path d="M396.749,298.654H257.813h-0.72H118.159H55.449l21.81,48.26c8.875,19.665,28.548,32.361,50.127,32.361h260.127 c21.58,0,41.252-12.696,50.128-32.361l21.809-48.26H396.749z"></path> <path d="M314.296,409.738H200.594l-19.925,50.648c-2.58,6.54-1.746,13.952,2.212,19.771c3.968,5.82,10.554,9.297,17.59,9.297 h113.95c7.037,0,13.622-3.478,17.588-9.297c3.96-5.82,4.795-13.231,2.215-19.771L314.296,409.738z"></path> </g> </g></svg>