<svg width="60" height="67" viewBox="0 0 60 67" fill="none" xmlns="http://www.w3.org/2000/svg">
<path d="M34.1885 29.6446C33.9293 23.8701 33.5846 20.7678 30.1376 16.976C25.7419 12.0647 24.1039 7.32428 27.7246 0C28.6733 4.91135 29.018 9.30702 32.465 11.9792C35.9121 14.6513 38.7552 21.8901 34.1885 29.6446ZM27.7274 29.6446C27.5537 26.5422 27.3827 24.9897 25.4854 22.836C23.158 20.2493 22.2094 17.7509 24.1921 13.7882C24.7106 16.4603 24.796 18.7878 26.6905 20.1666C28.585 21.5454 30.2231 25.5109 27.7246 29.6473L27.7274 29.6446ZM43.3246 56.8762H59.01C59.9587 56.8762 60.3034 57.5656 59.6994 58.3405C59.6994 58.3405 53.5802 66.1833 45.1364 66.1833H14.8879L0.324776 58.3405C-0.279146 57.5656 -0.0199285 56.8762 0.928698 56.8762H16.4404C14.2867 55.7566 11.0961 50.8425 11.0961 44.7261V31.7983H48.8426V32.8324C50.0505 31.7983 51.5148 31.2799 53.0646 31.2799C55.2183 31.2799 59.2692 33.5218 59.2692 37.3991C59.2692 42.9998 55.563 45.068 53.4093 46.5351C53.4093 46.5351 49.3583 49.7229 46.5152 53.4292C45.5666 55.0672 44.447 56.3606 43.3274 56.8762H43.3246ZM53.0618 33.6101C51.683 33.6101 49.9595 34.214 48.8399 36.9716V44.1249C48.8399 45.0736 48.7544 46.1932 48.5807 47.1418C50.4779 45.2445 52.7171 43.954 52.7171 43.954C54.0959 43.0053 56.8536 41.1963 56.8536 37.6638C56.939 35.1654 54.6116 33.6101 53.0618 33.6101ZM17.6427 34.6442H15.2298V38.1767H17.6427V34.6442ZM17.6427 40.2449H15.2298V46.0194C15.2298 46.0194 15.9192 53.7767 20.8306 56.1013C17.8137 52.5688 17.6427 48.5178 17.6427 46.0194V40.2449Z" fill="#171D1C"/>
</svg>
