<svg width="40" height="40" viewBox="0 0 40 40" fill="none" xmlns="http://www.w3.org/2000/svg">
<path d="M9.25333 34.9467C8.67807 34.9305 8.11192 34.7989 7.58852 34.5597C7.06511 34.3204 6.59512 33.9784 6.20646 33.554C5.8178 33.1296 5.5184 32.6314 5.32604 32.089C5.13367 31.5466 5.05227 30.9711 5.08666 30.3967C5.06666 26.8083 5.08666 23.22 5.08666 19.6317C5.08666 19.4107 5.17446 19.1987 5.33074 19.0424C5.48702 18.8861 5.69898 18.7983 5.92 18.7983C6.14101 18.7983 6.35297 18.8861 6.50925 19.0424C6.66553 19.1987 6.75333 19.4107 6.75333 19.6317C6.75333 23.2983 6.7 26.965 6.75333 30.6317C6.78 32.4767 8.16666 33.28 9.81666 33.28H30.5883C31.1129 33.2929 31.6289 33.1453 32.0673 32.857C32.5057 32.5687 32.8456 32.1534 33.0417 31.6667C33.2015 31.0917 33.2579 30.493 33.2083 29.8983V19.6317C33.2083 19.4107 33.2961 19.1987 33.4524 19.0424C33.6087 18.8861 33.8206 18.7983 34.0417 18.7983C34.2627 18.7983 34.4746 18.8861 34.6309 19.0424C34.7872 19.1987 34.875 19.4107 34.875 19.6317C34.875 23.3383 35.0167 27.0733 34.875 30.7767C34.8607 31.3438 34.7337 31.9024 34.5014 32.42C34.2692 32.9376 33.9363 33.4038 33.5222 33.7915C33.1081 34.1793 32.621 34.4808 32.0893 34.6785C31.5576 34.8763 30.9918 34.9663 30.425 34.9433L9.25333 34.9467Z" fill="#171D1C"/>
<path d="M20.5617 5.29334C20.4251 5.15252 20.2394 5.07009 20.0433 5.06334C20.0183 5.06334 19.9967 5.06334 19.9717 5.05334C19.9467 5.04334 19.9267 5.05334 19.9033 5.06334C19.7068 5.07001 19.5205 5.15242 19.3833 5.29334L13.2683 11.4083C13.1165 11.5655 13.0325 11.776 13.0344 11.9945C13.0363 12.213 13.124 12.422 13.2785 12.5765C13.433 12.731 13.642 12.8187 13.8605 12.8206C14.079 12.8225 14.2895 12.7385 14.4467 12.5867L19.14 7.895V25.7983C19.14 26.0193 19.2278 26.2313 19.3841 26.3876C19.5404 26.5439 19.7523 26.6317 19.9733 26.6317C20.1943 26.6317 20.4063 26.5439 20.5626 26.3876C20.7189 26.2313 20.8067 26.0193 20.8067 25.7983V7.895L25.5 12.5867C25.6572 12.7385 25.8677 12.8225 26.0862 12.8206C26.3047 12.8187 26.5137 12.731 26.6682 12.5765C26.8227 12.422 26.9103 12.213 26.9122 11.9945C26.9141 11.776 26.8301 11.5655 26.6783 11.4083L20.5617 5.29334Z" fill="#171D1C"/>
</svg>
