<svg width="60" height="60" viewBox="0 0 60 60" fill="none" xmlns="http://www.w3.org/2000/svg">
<path d="M55.3123 18.75C55.3123 16.5122 54.4233 14.3661 52.841 12.7838C51.2586 11.2014 49.1125 10.3125 46.8748 10.3125H11.2498C9.25952 10.3127 7.33341 11.0164 5.81181 12.2993C4.29021 13.5821 3.27108 15.3616 2.93452 17.3232C2.59796 19.2848 2.96564 21.3022 3.97259 23.0189C4.97953 24.7356 6.56091 26.0411 8.43726 26.7047V46.875C8.43726 47.6209 8.73358 48.3363 9.26102 48.8637C9.78847 49.3912 10.5038 49.6875 11.2498 49.6875H46.8748C47.6207 49.6875 48.336 49.3912 48.8635 48.8637C49.3909 48.3363 49.6873 47.6209 49.6873 46.875V26.7047C51.3309 26.121 52.7538 25.0432 53.7609 23.6191C54.7679 22.195 55.3098 20.4942 55.3123 18.75ZM10.3123 46.875V27.1336C10.6235 27.1693 10.9365 27.1873 11.2498 27.1875C11.4984 27.1875 11.7369 27.0887 11.9127 26.9129C12.0885 26.7371 12.1873 26.4986 12.1873 26.25C12.1873 26.0014 12.0885 25.7629 11.9127 25.5871C11.7369 25.4113 11.4984 25.3125 11.2498 25.3125C9.50928 25.3125 7.84008 24.6211 6.60937 23.3904C5.37866 22.1597 4.68726 20.4905 4.68726 18.75C4.68726 17.0095 5.37866 15.3403 6.60937 14.1096C7.84008 12.8789 9.50928 12.1875 11.2498 12.1875H33.7498C35.4902 12.1875 37.1594 12.8789 38.3901 14.1096C39.6209 15.3403 40.3123 17.0095 40.3123 18.75C40.3123 20.4905 39.6209 22.1597 38.3901 23.3904C37.1594 24.6211 35.4902 25.3125 33.7498 25.3125C33.5011 25.3125 33.2627 25.4113 33.0868 25.5871C32.911 25.7629 32.8123 26.0014 32.8123 26.25C32.8123 26.4986 32.911 26.7371 33.0868 26.9129C33.2627 27.0887 33.5011 27.1875 33.7498 27.1875C34.063 27.1873 34.376 27.1693 34.6873 27.1336V46.875C34.6873 47.1236 34.5885 47.3621 34.4127 47.5379C34.2369 47.7137 33.9984 47.8125 33.7498 47.8125H11.2498C11.0011 47.8125 10.7627 47.7137 10.5868 47.5379C10.411 47.3621 10.3123 47.1236 10.3123 46.875ZM46.8748 25.3125C46.6261 25.3125 46.3877 25.4113 46.2118 25.5871C46.036 25.7629 45.9373 26.0014 45.9373 26.25C45.9373 26.4986 46.036 26.7371 46.2118 26.9129C46.3877 27.0887 46.6261 27.1875 46.8748 27.1875C47.188 27.1873 47.501 27.1693 47.8123 27.1336V46.875C47.8123 47.1236 47.7135 47.3621 47.5377 47.5379C47.3619 47.7137 47.1234 47.8125 46.8748 47.8125H36.3982C36.5066 47.5118 36.5622 47.1946 36.5623 46.875V26.7047C37.9766 26.2034 39.2317 25.3339 40.1981 24.1859C41.1646 23.038 41.8074 21.6531 42.0603 20.1739C42.3131 18.6948 42.167 17.175 41.6368 15.7711C41.1067 14.3673 40.2118 13.1302 39.0443 12.1875H46.8748C48.6152 12.1875 50.2844 12.8789 51.5151 14.1096C52.7459 15.3403 53.4373 17.0095 53.4373 18.75C53.4373 20.4905 52.7459 22.1597 51.5151 23.3904C50.2844 24.6211 48.6152 25.3125 46.8748 25.3125Z" fill="#171D1C"/>
</svg>
