<svg width="60" height="60" viewBox="0 0 60 60" fill="none" xmlns="http://www.w3.org/2000/svg">
<path d="M10 27.5H50C50.663 27.5 51.2989 27.7634 51.7678 28.2322C52.2366 28.7011 52.5 29.337 52.5 30V31.25C52.5 35 46.2075 45.1825 42.5 47.5V50C42.5 50.663 42.2366 51.2989 41.7678 51.7678C41.2989 52.2366 40.663 52.5 40 52.5H20C19.337 52.5 18.7011 52.2366 18.2322 51.7678C17.7634 51.2989 17.5 50.663 17.5 50V47.5C13.2825 44.865 7.5 35 7.5 31.25V30C7.5 29.337 7.76339 28.7011 8.23223 28.2322C8.70107 27.7634 9.33696 27.5 10 27.5Z" stroke="#171D1C" stroke-linecap="round" stroke-linejoin="round"/>
<path d="M46.25 27.5C47.1275 24.9575 47.315 21.91 47.5 18.215V15H41.86C34.785 15 30.32 17.01 27.76 20.19" stroke="#171D1C" stroke-linecap="round" stroke-linejoin="round"/>
<path d="M13.1375 27.52C12.7864 25.8672 12.5731 24.1881 12.5 22.5V20H16.8875C19.3375 20 21.39 20.31 23.085 20.875" stroke="#171D1C" stroke-linecap="round" stroke-linejoin="round"/>
<path d="M20 20L22.5 10L32.5 16.25" stroke="#171D1C" stroke-linecap="round" stroke-linejoin="round"/>
<path d="M32.5 27.5V26.25C32.5 24.5924 31.8415 23.0027 30.6694 21.8306C29.4973 20.6585 27.9076 20 26.25 20C24.5924 20 23.0027 20.6585 21.8306 21.8306C20.6585 23.0027 20 24.5924 20 26.25V27.5" stroke="#171D1C" stroke-linecap="round" stroke-linejoin="round"/>
</svg>
