<svg width="60" height="60" viewBox="0 0 60 60" fill="none" xmlns="http://www.w3.org/2000/svg">
<path d="M51.2131 8.7868C45.5469 3.12057 38.0131 0 29.9999 0C21.9866 0 14.4531 3.12057 8.78692 8.7868C3.12046 14.453 0 21.9866 0 30C0 37.9739 3.09421 45.481 8.71262 51.1384C9.11821 51.5468 9.77785 51.5488 10.1858 51.1436C10.5938 50.7381 10.5962 50.0787 10.1908 49.6704C4.96264 44.4056 2.08347 37.4199 2.08347 30C2.08347 14.6068 14.6068 2.08347 30 2.08347C45.3932 2.08347 57.9164 14.6068 57.9164 30C57.9164 45.3932 45.3931 57.9165 29.9999 57.9165C23.6048 57.9165 17.5883 55.8128 12.6007 51.8327C12.151 51.4739 11.4956 51.5475 11.1368 51.9971C10.7778 52.4468 10.8515 53.1023 11.3014 53.4612C16.6618 57.7389 23.1278 60.0001 30 60.0001C38.0131 60.0001 45.547 56.8795 51.2132 51.2133C56.8794 45.5471 60 38.0134 60 30.0001C60 21.9869 56.8793 14.453 51.2131 8.7868Z" fill="#171D1C"/>
<path d="M48.2859 22.7895C47.7679 21.4775 47.105 20.2169 46.3148 19.0425C45.9936 18.5651 45.3463 18.4384 44.8691 18.7598C44.3917 19.0811 44.265 19.7283 44.5863 20.2056C45.2926 21.2552 45.8852 22.3817 46.3478 23.5541C46.5095 23.9637 46.9018 24.2138 47.3171 24.2138C47.4444 24.2138 47.5738 24.1903 47.6993 24.1409C48.2345 23.9296 48.4971 23.3247 48.2859 22.7895Z" fill="#171D1C"/>
<path d="M38.2029 46.7413C37.9789 46.2114 37.3676 45.9637 36.8377 46.1877C34.6724 47.1034 32.3719 47.5679 30 47.5679C20.313 47.5679 12.4321 39.687 12.4321 30.0001C12.4321 28.3576 12.6584 26.732 13.1046 25.1683C13.2626 24.6151 12.942 24.0387 12.3889 23.8808C11.835 23.7231 11.2591 24.0431 11.1012 24.5966C10.6019 26.3462 10.3486 28.1642 10.3486 30C10.3486 40.8358 19.1641 49.6513 30 49.6513C32.6523 49.6513 35.226 49.1316 37.6495 48.1067C38.1793 47.8824 38.4274 47.2712 38.2029 46.7413Z" fill="#171D1C"/>
<path d="M44.3348 9.98746C43.7358 8.95106 42.7788 8.52134 42.111 8.28837C41.9257 8.22368 41.7258 8.21267 41.5345 8.25673L41.4543 8.27524C40.274 8.54618 39.0533 8.08622 38.3455 7.10302C38.227 6.93849 38.0631 6.81193 37.8738 6.73916C37.2252 6.49002 36.2345 6.20396 35.1257 6.59818C32.9583 7.36892 31.2654 9.04997 30.481 11.2103C30.3708 11.5137 30.2828 11.8206 30.2118 12.1295C29.7903 11.5984 29.3111 11.1045 28.7772 10.656C28.4405 10.3734 28.0669 10.1457 27.6666 9.9795C26.4651 9.48063 25.0751 9.61751 23.9483 10.3459L23.5406 10.6094C22.7606 11.1139 21.7605 11.1017 20.9928 10.578L20.7506 10.4127C19.3155 9.43376 17.4388 9.45426 16.081 10.4635C16.023 10.5067 15.9653 10.5518 15.9076 10.5993C15.0252 11.3276 14.2785 12.1927 13.6882 13.1705C13.3908 13.663 13.5492 14.3033 14.0416 14.6007C14.5344 14.8978 15.1745 14.7396 15.4718 14.2472C15.9403 13.4712 16.533 12.7845 17.2336 12.2064C17.2633 12.1818 17.2935 12.1584 17.3238 12.1357C17.9692 11.656 18.8744 11.6552 19.5764 12.134L19.8186 12.2992C21.2807 13.2966 23.1859 13.3199 24.6716 12.3591L25.0792 12.0957C25.6304 11.7394 26.2989 11.6677 26.8673 11.9038C27.0742 11.9898 27.2608 12.1035 27.4371 12.2516C29.388 13.8903 30.4215 16.2926 30.273 18.8429C30.0391 22.8593 26.706 26.1494 22.6848 26.3335C20.479 26.4347 18.3885 25.6533 16.7979 24.1337C15.2062 22.6132 14.3296 20.5641 14.3296 18.3639C14.3296 17.8384 14.3808 17.3132 14.482 16.8027C14.5937 16.2382 14.2269 15.69 13.6624 15.5783C13.0993 15.4664 12.55 15.8333 12.4382 16.3977C12.3108 17.0412 12.2461 17.7028 12.2461 18.3638C12.2461 21.1386 13.3514 23.7227 15.3586 25.64C17.2495 27.4465 19.6997 28.4257 22.3024 28.4256C22.4611 28.4256 22.6202 28.4219 22.7799 28.4145C25.2525 28.3013 27.5934 27.2724 29.3716 25.5173C31.0659 23.8451 32.1051 21.6534 32.3242 19.3138C33.1804 20.1531 34.2297 20.7852 35.415 21.1553C36.1539 21.386 36.9169 21.5004 37.6797 21.5004C38.7765 21.5004 39.8726 21.2634 40.8939 20.7943C42.6253 19.9989 43.99 18.606 44.7361 16.8722C45.7066 14.6178 45.5605 12.1083 44.3348 9.98746ZM42.8228 16.0486C41.7087 18.6369 38.7273 20.0063 36.0361 19.1665C34.5596 18.7056 33.3696 17.6913 32.6854 16.3105C32.0008 14.9288 31.9134 13.37 32.4394 11.9213C33.0108 10.3476 34.2443 9.12286 35.8235 8.56118C35.9632 8.51161 36.1049 8.4863 36.2587 8.4863C36.4391 8.4863 36.6359 8.5211 36.8647 8.59224C38.0342 10.0073 39.8706 10.6817 41.6831 10.3544C42.1089 10.534 42.3629 10.7391 42.531 11.03C43.4241 12.5754 43.5301 14.4045 42.8228 16.0486Z" fill="#171D1C"/>
<path d="M52.666 31.9406C52.8266 29.5997 51.6539 27.3347 49.5881 26.1277C47.5221 24.9206 44.9731 25.0112 43.013 26.3007C41.9498 25.7008 40.7171 25.541 39.5338 25.8516C38.3272 26.1682 37.3162 26.9358 36.687 28.0127C35.4274 30.1687 36.0964 32.9286 38.1656 34.2783C38.1526 34.4702 38.1414 34.6606 38.1306 34.848C38.0259 36.6791 37.9176 38.5725 35.9481 41.9433C35.6579 42.44 35.8252 43.0779 36.3221 43.3682L41.0839 46.1502C41.2446 46.2442 41.4263 46.2925 41.6093 46.2925C41.6978 46.2925 41.7868 46.2813 41.8738 46.2583C42.141 46.1881 42.3694 46.0148 42.5087 45.7762C44.0298 43.1726 45.3195 42.0179 46.2733 41.3027C46.7335 40.9576 46.8267 40.3046 46.4816 39.8443C46.1365 39.3841 45.4837 39.2908 45.0232 39.6359C43.5973 40.7053 42.41 42.0234 41.2526 43.8358L38.2546 42.0842C39.9777 38.8337 40.1102 36.7263 40.2086 35.0066C40.5595 35.0451 40.9144 35.0464 41.2666 35.0052C41.7877 35.7795 42.4772 36.4276 43.2924 36.9038C44.1075 37.3801 45.0105 37.6624 45.9409 37.7362C46.33 38.665 47.0136 39.4543 47.8933 39.9682C48.6319 40.3998 49.4415 40.6048 50.241 40.6048C51.8477 40.6048 53.4138 39.7762 54.2811 38.2917C55.568 36.0891 54.8417 33.256 52.666 31.9406ZM52.4821 37.2409C51.7628 38.4723 50.1756 38.889 48.9438 38.1696C48.3116 37.8002 47.8776 37.2022 47.7216 36.4856C47.617 36.0049 47.1914 35.6654 46.7043 35.6654C46.6862 35.6654 46.6681 35.6659 46.6498 35.6668C45.8427 35.7088 45.0436 35.5145 44.3428 35.1051C43.6423 34.6957 43.0812 34.0961 42.7207 33.3713C42.4936 32.9144 41.9687 32.6893 41.4814 32.8397C40.78 33.0556 40.0462 32.9709 39.4141 32.6019C38.1828 31.8824 37.7662 30.2953 38.4856 29.0637C38.8342 28.4673 39.3941 28.0421 40.0623 27.8667C40.7307 27.6912 41.4272 27.7867 42.0236 28.1352C42.1452 28.2063 42.2637 28.2895 42.3759 28.3827C42.7673 28.7082 43.337 28.7031 43.7228 28.37C45.0674 27.2084 47.0019 27.03 48.537 27.9267C50.0713 28.8233 50.8663 30.5961 50.5146 32.3383C50.4137 32.8377 50.6889 33.3368 51.165 33.5179C51.3013 33.5699 51.4318 33.632 51.5531 33.703H51.5534C52.785 34.4224 53.2015 36.0095 52.4821 37.2409Z" fill="#171D1C"/>
<path d="M29.5221 39.9864C30.0974 39.9864 30.5638 39.5201 30.5638 38.9447C30.5638 38.3694 30.0974 37.9031 29.5221 37.9031C28.9468 37.9031 28.4805 38.3694 28.4805 38.9447C28.4805 39.5201 28.9468 39.9864 29.5221 39.9864Z" fill="#171D1C"/>
<path d="M27.3537 35.8197C27.929 35.8197 28.3954 35.3533 28.3954 34.778C28.3954 34.2027 27.929 33.7363 27.3537 33.7363C26.7784 33.7363 26.312 34.2027 26.312 34.778C26.312 35.3533 26.7784 35.8197 27.3537 35.8197Z" fill="#171D1C"/>
<path d="M24.3996 39.5698C24.9749 39.5698 25.4413 39.1034 25.4413 38.5281C25.4413 37.9528 24.9749 37.4865 24.3996 37.4865C23.8243 37.4865 23.3579 37.9528 23.3579 38.5281C23.3579 39.1034 23.8243 39.5698 24.3996 39.5698Z" fill="#171D1C"/>
<path d="M21.4079 41.0282C21.9832 41.0282 22.4496 40.5618 22.4496 39.9865C22.4496 39.4112 21.9832 38.9448 21.4079 38.9448C20.8326 38.9448 20.3662 39.4112 20.3662 39.9865C20.3662 40.5618 20.8326 41.0282 21.4079 41.0282Z" fill="#171D1C"/>
<path d="M19.7311 37.2781C20.3064 37.2781 20.7728 36.8117 20.7728 36.2364C20.7728 35.6611 20.3064 35.1947 19.7311 35.1947C19.1558 35.1947 18.6895 35.6611 18.6895 36.2364C18.6895 36.8117 19.1558 37.2781 19.7311 37.2781Z" fill="#171D1C"/>
<path d="M23.2731 35.4029C23.8484 35.4029 24.3148 34.9366 24.3148 34.3613C24.3148 33.786 23.8484 33.3196 23.2731 33.3196C22.6978 33.3196 22.2314 33.786 22.2314 34.3613C22.2314 34.9366 22.6978 35.4029 23.2731 35.4029Z" fill="#171D1C"/>
<path d="M24.3996 31.6528C24.9749 31.6528 25.4413 31.1864 25.4413 30.6111C25.4413 30.0358 24.9749 29.5695 24.3996 29.5695C23.8243 29.5695 23.3579 30.0358 23.3579 30.6111C23.3579 31.1864 23.8243 31.6528 24.3996 31.6528Z" fill="#171D1C"/>
<path d="M19.5231 33.5278C20.0984 33.5278 20.5648 33.0614 20.5648 32.4861C20.5648 31.9108 20.0984 31.4445 19.5231 31.4445C18.9478 31.4445 18.4814 31.9108 18.4814 32.4861C18.4814 33.0614 18.9478 33.5278 19.5231 33.5278Z" fill="#171D1C"/>
</svg>
