<svg width="60" height="60" viewBox="0 0 60 60" fill="none" xmlns="http://www.w3.org/2000/svg">
<path d="M29.863 31.9407C29.5974 32.6858 29.4517 33.4879 29.4517 34.3243C29.4517 38.2454 32.6303 41.4239 36.5512 41.4239C40.4723 41.4239 43.6508 38.2453 43.6508 34.3243C43.6508 33.4879 43.505 32.6859 43.2395 31.9407H29.863Z" fill="#171D1C"/>
<path d="M36.6123 49.715C36.6047 49.7168 36.5968 49.7188 36.589 49.7207C34.4769 50.2353 32.2708 50.51 30.0003 50.51C27.7216 50.51 25.5077 50.2332 23.3885 49.715C21.3646 51.5294 20.0903 54.1632 20.0903 57.0951C20.0903 57.488 20.1139 57.8751 20.1583 58.256H39.8423C39.8867 57.8751 39.9103 57.4878 39.9103 57.0951C39.9104 54.1632 38.6361 51.5295 36.6123 49.715Z" fill="#171D1C"/>
<path d="M59.2852 19.3142C59.1825 18.4353 58.438 17.7724 57.5531 17.7724H45.3944V7.53257C45.3944 6.68636 46.0827 5.99788 46.929 5.99788C47.7753 5.99788 48.4637 6.68636 48.4637 7.53257C48.4637 8.4955 49.2445 9.27633 50.2074 9.27633C51.1704 9.27633 51.9512 8.4955 51.9512 7.53257C51.9512 4.76331 49.6983 2.51038 46.929 2.51038C44.1599 2.51038 41.9069 4.76331 41.9069 7.53257V30.1969H29.8626C29.1251 30.1969 28.4676 30.6607 28.22 31.3553C27.8799 32.3097 27.7075 33.3085 27.7075 34.3243C27.7075 39.2006 31.6746 43.1678 36.5509 43.1678C41.4272 43.1678 45.3944 39.2006 45.3944 34.3243C45.3944 34.2245 45.3915 34.1249 45.3881 34.0256C45.391 33.9838 45.3944 33.9422 45.3944 33.8998V21.2601H55.9556C55.9849 21.7646 55.9997 22.2678 55.9997 22.7664C55.9997 31.6973 51.4974 39.8995 43.9562 44.7071C43.1443 45.225 42.9056 46.3028 43.4231 47.1151C43.7557 47.6367 44.3193 47.9216 44.8952 47.9216C45.2158 47.9216 45.5404 47.8332 45.831 47.6482C54.382 42.1965 59.4872 32.8952 59.4872 22.7666C59.4874 21.6253 59.4192 20.464 59.2852 19.3142ZM36.551 39.6802C33.5977 39.6802 31.195 37.2776 31.195 34.3243C31.195 34.1096 31.2078 33.8959 31.2332 33.6844H41.8691C41.8944 33.8959 41.907 34.1096 41.907 34.3243C41.907 37.2776 39.5042 39.6802 36.551 39.6802Z" fill="#171D1C"/>
<path d="M37.7759 48.4166C37.35 48.0347 36.7633 47.8863 36.2069 48.019L36.1761 48.0266C32.6465 48.8863 28.9179 48.9932 25.3393 48.3471C25.3125 48.3422 25.2861 48.3367 25.2592 48.3317C25.0601 48.2952 24.8616 48.2559 24.6636 48.2146C24.5579 48.1924 24.4527 48.1691 24.3476 48.1455C24.2323 48.1201 24.1172 48.0937 24.0024 48.0667C12.5481 45.3514 4.00044 35.0389 4.00044 22.7663C4.00044 22.2679 4.01509 21.7647 4.0445 21.2601H34.0978C35.0607 21.2601 35.8415 20.4793 35.8415 19.5163C35.8415 18.5534 35.0607 17.7726 34.0978 17.7726H2.447C1.56199 17.7726 0.817383 18.4354 0.714961 19.3143C0.580664 20.4645 0.512695 21.6258 0.512695 22.7664C0.512695 35.6355 8.80021 46.6038 20.3178 50.619C19.0471 52.52 18.3462 54.7717 18.3462 57.0952C18.3462 57.5464 18.373 58.005 18.4261 58.4586C18.5288 59.3373 19.2733 60 20.158 60H39.8421C40.7268 60 41.4717 59.3372 41.5741 58.4583C41.6271 58.0049 41.6538 57.5464 41.6538 57.0952C41.654 53.7892 40.2405 50.6262 37.7759 48.4166ZM21.8547 56.5126C21.9851 54.6988 22.7209 52.9767 23.9369 51.6273C23.9573 51.6315 23.9779 51.6349 23.9981 51.6394C24.1702 51.6751 24.3433 51.708 24.5165 51.7407C24.5808 51.7529 24.6448 51.7662 24.7094 51.7779C26.4263 52.0902 28.1943 52.2541 30.0002 52.2541C30.0255 52.2541 30.0501 52.2513 30.0752 52.2503C32.0893 52.2453 34.1015 52.038 36.0635 51.6275C37.2792 52.9768 38.0149 54.6988 38.1453 56.5127L21.8547 56.5126Z" fill="#171D1C"/>
<path d="M32.4441 15.2006C31.9977 15.2006 31.5516 15.0302 31.211 14.6899C30.5301 14.0089 30.5301 12.905 31.211 12.2237L33.8362 9.59847C34.0564 9.37839 34.1774 9.08284 34.1774 8.76632C34.1774 8.44967 34.0564 8.15389 33.8362 7.93405C33.3852 7.48311 32.6227 7.48299 32.1714 7.93405C32.1593 7.94612 32.147 7.95831 32.1346 7.97003L31.0545 8.98803C30.178 9.85393 29.0149 10.3304 27.7765 10.3304C26.5281 10.3304 25.3568 9.84655 24.478 8.96764C23.5993 8.08909 23.1152 6.91768 23.1152 5.66951C23.1152 4.42135 23.5993 3.24982 24.478 2.37103L26.338 0.510558C27.019 -0.170186 28.1231 -0.170186 28.8041 0.510558C29.4851 1.19154 29.4852 2.29568 28.8041 2.97677L26.944 4.83701C26.7239 5.05709 26.6025 5.35264 26.6025 5.66928C26.6025 5.9858 26.7237 6.28147 26.9438 6.50143C27.164 6.72162 27.4596 6.84268 27.7763 6.84268C28.0929 6.84268 28.3884 6.72162 28.6085 6.50143C28.6207 6.48936 28.6331 6.47741 28.6454 6.46545L29.7256 5.44744C31.5461 3.64908 34.4899 3.65623 36.3019 5.46772C37.1808 6.34662 37.6647 7.51803 37.6647 8.7662C37.6647 10.0144 37.1808 11.1859 36.3019 12.0646L33.677 14.6898C33.3367 15.0305 32.8905 15.2006 32.4441 15.2006Z" fill="#171D1C"/>
</svg>
