<svg width="60" height="60" viewBox="0 0 60 60" fill="none" xmlns="http://www.w3.org/2000/svg">
<path d="M30 52.5C35.9674 52.5 41.6903 50.1295 45.9099 45.9099C50.1295 41.6903 52.5 35.9674 52.5 30H7.5C7.5 35.9674 9.87053 41.6903 14.0901 45.9099C18.3097 50.1295 24.0326 52.5 30 52.5Z" stroke="#171D1C" stroke-linecap="round" stroke-linejoin="round"/>
<path d="M17.5 52.5H42.5" stroke="#171D1C" stroke-linecap="round" stroke-linejoin="round"/>
<path d="M48.75 30L55 15" stroke="#171D1C" stroke-linecap="round" stroke-linejoin="round"/>
<path d="M40.625 7.5C41.3 7.75 42.625 8.825 42.5 10.9C42.35 12.975 40.175 13.9 40 15.95C39.875 17.9 40.85 19.05 41.825 20" stroke="#171D1C" stroke-linecap="round" stroke-linejoin="round"/>
<path d="M28.125 7.5C28.8 7.75 30.125 8.825 29.975 10.9C29.85 12.975 27.65 13.9 27.525 15.95C27.375 17.9 28.35 19.05 29.325 20" stroke="#171D1C" stroke-linecap="round" stroke-linejoin="round"/>
<path d="M15.625 7.5C16.3 7.75 17.625 8.825 17.5 10.9C17.35 12.975 15.175 13.9 15 15.95C14.875 17.9 15.85 19.05 16.85 20" stroke="#171D1C" stroke-linecap="round" stroke-linejoin="round"/>
</svg>
