<svg width="100" height="100" viewBox="0 0 100 100" fill="none" xmlns="http://www.w3.org/2000/svg">
<path d="M50.6152 44.8242C50.5421 44.7308 50.4487 44.6553 50.3422 44.6034C50.2356 44.5515 50.1185 44.5245 50 44.5245C49.8814 44.5245 49.7644 44.5515 49.6578 44.6034C49.5512 44.6553 49.4578 44.7308 49.3847 44.8242L38.4472 58.6621C38.3571 58.7773 38.3011 58.9154 38.2858 59.0609C38.2705 59.2063 38.2964 59.3531 38.3605 59.4846C38.4247 59.616 38.5246 59.7267 38.6487 59.804C38.7728 59.8813 38.9162 59.9222 39.0625 59.9219H46.2793V83.5937C46.2793 84.0234 46.6308 84.375 47.0605 84.375H52.9199C53.3496 84.375 53.7011 84.0234 53.7011 83.5937V59.9316H60.9375C61.5918 59.9316 61.9531 59.1797 61.5527 58.6719L50.6152 44.8242Z" fill="#7A7D7D"/>
<path d="M79.2383 35.8105C74.7656 24.0137 63.3691 15.625 50.0195 15.625C36.6699 15.625 25.2734 24.0039 20.8008 35.8008C12.4316 37.998 6.25 45.625 6.25 54.6875C6.25 65.4785 14.9902 74.2188 25.7715 74.2188H29.6875C30.1172 74.2188 30.4688 73.8672 30.4688 73.4375V67.5781C30.4688 67.1484 30.1172 66.7969 29.6875 66.7969H25.7715C22.4805 66.7969 19.3848 65.4883 17.0801 63.1152C14.7852 60.752 13.5645 57.5684 13.6719 54.2676C13.7598 51.6895 14.6387 49.2676 16.2305 47.2266C17.8613 45.1465 20.1465 43.6328 22.6855 42.959L26.3867 41.9922L27.7441 38.418C28.584 36.1914 29.7559 34.1113 31.2305 32.2266C32.6862 30.3585 34.4107 28.7163 36.3477 27.3535C40.3613 24.5313 45.0879 23.0371 50.0195 23.0371C54.9512 23.0371 59.6777 24.5313 63.6914 27.3535C65.6348 28.7207 67.3535 30.3613 68.8086 32.2266C70.2832 34.1113 71.4551 36.2012 72.2949 38.418L73.6426 41.9824L77.334 42.959C82.627 44.3848 86.3281 49.1992 86.3281 54.6875C86.3281 57.9199 85.0684 60.9668 82.7832 63.252C81.6625 64.3792 80.3294 65.2729 78.861 65.8814C77.3926 66.4899 75.818 66.801 74.2285 66.7969H70.3125C69.8828 66.7969 69.5312 67.1484 69.5312 67.5781V73.4375C69.5312 73.8672 69.8828 74.2188 70.3125 74.2188H74.2285C85.0098 74.2188 93.75 65.4785 93.75 54.6875C93.75 45.6348 87.5879 38.0176 79.2383 35.8105Z" fill="#7A7D7D"/>
</svg>
